<svg version="1.1" id="Layer_1" xmlns="http://www.w3.org/2000/svg" x="0" y="0" viewBox="0 0 874 152" xml:space="preserve"><style>.st0{fill:#009fff}</style><path class="st0" d="M302.6 39.2v23.6h41.5v15.7h-41.5v41.9h-22.8V20.6h72.1v18.6h-49.3zM359.4 25.3c0-6.5 5.4-11.8 12.1-11.8 6.7 0 12.1 5.3 12.1 11.8S378.3 37 371.5 37c-6.7 0-12.1-5.2-12.1-11.7zm1.7 23h21v72.2h-21V48.3zM444.7 46.5c12.2 0 26.4 6.9 26.4 28.8v45.3h-21.2V81.2c0-10.6-3.9-16.8-12.9-16.8-6.5 0-13.1 4.4-14.2 17.1v39h-21.2V48.3h18.7l2.4 8c5.2-6.1 12.2-9.8 22-9.8zM558 48.3l-31.6 72.2h-17.6l-31.5-72.2h22.6l17.7 47.3 17.8-47.3H558zM637.3 89.8h-54c1.6 10.6 8 17.3 18.7 17.3 7 0 12-2.4 16.1-6.8l14.2 11.6c-7 6.9-16.7 10.9-29.9 10.9-25.5 0-41.5-16.2-41.5-38.1s16.2-38.1 38.8-38.1c21.9 0 37.4 14.6 37.4 38.1v5.1zm-37.5-27.9c-9 0-14.7 6.3-16.4 15.9h32.9c-1.1-9.4-6.7-15.8-16.5-15.9zM702.4 49.1l-5.9 17.3c-2.1-1-4.6-1.5-7.2-1.5-10.9 0-16.9 9.7-16.9 21.4v34.3h-21.2V48.3h18.6l2.6 9.7c3.9-6.4 9.1-11.6 18.2-11.6 7.1.1 11.8 2.7 11.8 2.7zM717.2 98.7c5.9 6.1 12.1 8.2 18.3 8.2 6.9 0 10.6-2.8 10.6-7.1 0-12-35.9-4.5-35.9-29.7 0-13.8 11.3-23.7 30.7-23.7 12 0 22 4.3 27 8.8l-11.1 13.1c-4.1-3.7-9.8-6-14.8-6-6.2 0-9.8 2.6-9.8 7.1 0 13.6 36.9 5.6 36.9 30.5 0 13.2-11 22.8-30.8 22.8-15.2 0-26.5-4.7-32.9-11.2l11.8-12.8zM854 89.8h-54c1.6 10.6 8 17.3 18.7 17.3 7 0 12-2.4 16.1-6.8l14.2 11.6c-7 6.9-16.7 10.9-29.9 10.9-25.5 0-41.5-16.2-41.5-38.1s16.2-38.1 38.8-38.1c21.9 0 37.4 14.6 37.4 38.1v5.1zm-37.4-27.9c-9 0-14.7 6.3-16.4 15.9h32.9c-1.1-9.4-6.7-15.8-16.5-15.9z"/><g><path class="st0" d="M148.5 136.2c-19.3 5.2-39.6.7-54.9-11.4-4.5.5-8.9 1-13.1 1.2l.2.2c13.7 14 32.1 21.7 51.5 21.7 6.3 0 12.6-.8 18.7-2.5 18.7-5 34.3-17 43.9-33.7 3.2-5.5 5.6-11.5 7.3-18l.2-.7c-3.8 1.9-7.8 3.7-11.9 5.5-7.2 18.6-22.7 32.5-41.9 37.7z"/></g><g><path class="st0" d="M240.7 46.9c-3.6-13.5-25.4-16.3-43-16.3h-1.2c2.1 3.1 4 6.3 5.7 9.7 6 .2 12.1.7 18 2.1 5.2 1.3 13.5 3.9 10.9 10.9-1.5 4.1-5.3 7.4-8.5 10.2-3.9 3.3-8.1 6.1-12.4 8.8-12.4 7.6-25.8 13.5-39.5 18.5-10.4 3.8-20.9 7.1-31.6 10-26.1 7-51.7 10.9-71.9 10.9-5.9 0-11.9-.3-17.7-1.3-4.3-.7-9.3-1.6-12.9-4.1-1.8-1.2-3.2-3.2-3.2-5.3-.1-4.2 4.2-8 7-10.7C42 88.6 44 87 46 85.5c1.2-.9 2.5-1.8 3.7-2.7.5-.3 4-2.3 4-2.6-.2-3.8 0-7.6.4-11.4-22.5 12.8-33 25.2-30 36.1 3.6 13.5 25.4 16.3 43 16.3 21.1 0 47.6-4 74.4-11.2 26.8-7.2 52.7-17.4 70.9-28 21.3-12.3 31.1-24.5 28.3-35.1z"/></g><g><path class="st0" d="M71.6 91.8c-4.3-16.2-2.1-33.1 6.3-47.6S99.9 19.3 116 15c5.3-1.4 10.8-2.2 16.3-2.2 28.3 0 53.2 19.1 60.6 46.5 1.2 4.6 1.9 9.5 2 14.6 3.3-1.7 6.4-3.3 9.2-4.9-.4-4.2-.9-8.3-2-12.2-8.5-31.6-37.2-53.6-69.9-53.6-6.3 0-12.6.8-18.8 2.5C75 16 52.1 55.8 62.4 94.3c1 3.8 2.5 7.7 4.3 11.5 3.3 0 6.8-.2 10.4-.5-2.3-4.3-4.2-8.8-5.5-13.5z"/></g><circle class="st0" cx="224.6" cy="66.9" r="16.6"/><g><path class="st0" d="M113.8 67.9h1.6c1.2 0 2.2-1.2 2.2-2.6 0-1.5-1-2.6-2.2-2.6h-14.2c-1.2 0-2.2 1.2-2.2 2.6 0 1.5 1 2.6 2.2 2.6h1.6v34.4c3.6-.6 7.3-1.3 11-2V67.9zM161.9 67.9h1.6c1.2 0 2.2-1.2 2.2-2.6 0-1.5-1-2.6-2.2-2.6h-14.2c-1.2 0-2.2 1.2-2.2 2.6 0 1.5 1 2.6 2.2 2.6h1.6v22.8c3.7-1.1 7.3-2.2 11-3.5V67.9z"/></g><path class="st0" d="M173.8 55.8l-38-27.6c-1.8-1.3-4.3-1.3-6.1 0l-38 27.6c-2 1.4-1 4.6 1.5 4.6h79.2c2.4 0 3.4-3.2 1.4-4.6z"/></svg>